

[IMG]http://img822.imageshack.us/img822/7711/villonswife1.jpg[/IMG]


This enticing period melodrama depicts a long-suffering woman's relationship with her brilliant but self-destructive writer husband in postwar Tokyo. Based on a semi-autobiographical 1947 novel by Osamu Dazai, the story centers less on the womanizing, heavy-drinking, suicidal hero than on the wife who loves him.


[IMG]http://img693.imageshack.us/img693/2503/bscap0000aen.jpg[/IMG]
[IMG]http://img714.imageshack.us/img714/2016/bscap0001z.jpg[/IMG]
[IMG]http://img710.imageshack.us/img710/4181/bscap0002s.jpg[/IMG]
[IMG]http://img710.imageshack.us/img710/7190/bscap0003u.jpg[/IMG]
[IMG]http://img697.imageshack.us/img697/7349/bscap0004zo.jpg[/IMG]
[IMG]http://img535.imageshack.us/img535/3630/villonswife2009dvdripen.jpg[/IMG]




General
Complete name                    : Villons Wife 2009 DVDRip(Eng Sub) GoGoVillons Wife 2009 DVDRip(Eng Sub) GoGo.avi
IMDB Link                        :[url]http://www.imdb.com/title/tt1259609/[/url]
Format                           : AVI
Format/Info                      : Audio Video Interleave
File size                        : 994 MiB
Duration                         : 1h 54mn
Overall bit rate                 : 1 219 Kbps
Writing application              : Lavf51.12.1

Video
ID                               : 0
Format                           : MPEG-4 Visual
Format profile                   : Simple@L1
Format settings, BVOP            : No
Format settings, QPel            : No
Format settings, GMC             : No warppoints
Format settings, Matrix          : Default (H.263)
Codec ID                         : DX50
Codec ID/Hint                    : DivX 5
Duration                         : 1h 54mn
Bit rate                         : 1 078 Kbps
Width                            : 640 pixels
Height                           : 352 pixels
Display aspect ratio             : 16:9
Frame rate                       : 23.976 fps
Color space                      : YUV
Chroma subsampling               : 4:2:0
Bit depth                        : 8 bits
Scan type                        : Progressive
Bits/(Pixel*Frame)               : 0.200
Stream size                      : 879 MiB (88%)
Writing library                  : Lavc51.40.4

Audio
ID                               : 1
Format                           : MPEG Audio
Format version                   : Version 1
Format profile                   : Layer 3
Mode                             : Joint stereo
Mode extension                   : MS Stereo
Codec ID                         : 55
Codec ID/Hint                    : MP3
Duration                         : 1h 54mn
Bit rate mode                    : Constant
Bit rate                         : 128 Kbps
Channel(s)                       : 2 channels
Sampling rate                    : 48.0 KHz
Stream size                      : 104 MiB (11%)
Alignment                        : Aligned on interleaves
Interleave, duration             : 24 ms (0.58 video frame)
Interleave, preload duration     : 24 ms
Writing library                  : LAME3.97
Language                         : Japanese
Subtitles                        : English.(.srt)
Genre                            : Drama

[img]http://imgboot.com/images/fasamoo/pleaseseed.gif[/img]